<svg width="385" height="96" viewBox="0 0 385 96" fill="none" xmlns="http://www.w3.org/2000/svg">
<rect x="9.52747" y="24.6918" width="47.3298" height="47.3298" rx="7.39528" fill="white"/>
<path d="M12.8441 24.6918H53.7159C55.5478 24.6918 57.0325 26.177 57.0325 28.0084V36.5216H34.7174C32.8856 36.5216 31.4008 38.0068 31.4008 39.8382V52.9218C31.4008 54.7536 29.9156 56.2384 28.0842 56.2384H9.52747V28.0084C9.52747 26.1765 11.0122 24.6918 12.8441 24.6918Z" fill="#FF0031"/>
<path d="M57.0325 40.9613H38.5989C36.7671 40.9613 35.2827 42.4456 35.2827 44.277V57.2993C35.2827 59.1311 33.7976 60.6159 31.9662 60.6159H9.52747V69.3145C9.52747 71.1463 11.0127 72.6311 12.8441 72.6311H53.7159C55.5478 72.6311 57.0325 71.1459 57.0325 69.3145V40.9613Z" fill="#2B2C78"/>
<path d="M84.5979 42.7803C84.5139 41.8559 84.1399 41.1374 83.476 40.6247C82.8206 40.1037 81.8835 39.8432 80.665 39.8432C79.8582 39.8432 79.1859 39.9482 78.6481 40.1583C78.1103 40.3684 77.7069 40.6583 77.438 41.0281C77.1691 41.3895 77.0304 41.8054 77.022 42.2761C77.0052 42.6626 77.0808 43.003 77.2489 43.2971C77.4254 43.5912 77.6775 43.8518 78.0052 44.0787C78.3414 44.2972 78.7448 44.4904 79.2154 44.6585C79.686 44.8266 80.2154 44.9737 80.8037 45.0997L83.0222 45.6039C84.2996 45.8813 85.4257 46.251 86.4005 46.7132C87.3838 47.1754 88.2073 47.7259 88.8712 48.3646C89.5435 49.0032 90.052 49.7386 90.3965 50.5705C90.7411 51.4025 90.9175 52.3353 90.9259 53.369C90.9175 54.9993 90.5058 56.3985 89.6906 57.5666C88.8754 58.7347 87.7031 59.6297 86.1736 60.2516C84.6526 60.8735 82.8164 61.1844 80.665 61.1844C78.5052 61.1844 76.6228 60.8609 75.0177 60.2138C73.4126 59.5667 72.1646 58.5835 71.2738 57.2641C70.383 55.9447 69.925 54.2766 69.8998 52.2597H75.8749C75.9253 53.0916 76.148 53.785 76.543 54.3396C76.938 54.8942 77.48 55.3144 78.1691 55.6002C78.8666 55.8859 79.6734 56.0288 80.5894 56.0288C81.4297 56.0288 82.1441 55.9153 82.7323 55.6884C83.329 55.4615 83.787 55.1464 84.1063 54.743C84.4257 54.3396 84.5895 53.8774 84.5979 53.3564C84.5895 52.869 84.4383 52.453 84.1441 52.1084C83.85 51.7555 83.3962 51.4529 82.7827 51.2008C82.1777 50.9403 81.4045 50.7008 80.4633 50.4823L77.7657 49.852C75.5303 49.3394 73.7697 48.5116 72.484 47.3687C71.1982 46.2174 70.5595 44.6627 70.5679 42.7046C70.5595 41.1079 70.9881 39.7087 71.8537 38.507C72.7193 37.3053 73.9168 36.3682 75.4463 35.6959C76.9758 35.0236 78.7195 34.6875 80.6776 34.6875C82.6777 34.6875 84.4131 35.0278 85.8837 35.7085C87.3628 36.3808 88.5099 37.3263 89.325 38.5448C90.1402 39.7633 90.5562 41.1752 90.573 42.7803H84.5979ZM103.116 61.2223C101.082 61.2223 99.3339 60.8063 97.8716 59.9743C96.4178 59.1339 95.2959 57.9658 94.5059 56.4699C93.7244 54.9657 93.3336 53.2219 93.3336 51.2386C93.3336 49.2469 93.7244 47.5032 94.5059 46.0073C95.2959 44.503 96.4178 43.3349 97.8716 42.503C99.3339 41.6626 101.082 41.2424 103.116 41.2424C105.149 41.2424 106.893 41.6626 108.347 42.503C109.809 43.3349 110.931 44.503 111.713 46.0073C112.503 47.5032 112.897 49.2469 112.897 51.2386C112.897 53.2219 112.503 54.9657 111.713 56.4699C110.931 57.9658 109.809 59.1339 108.347 59.9743C106.893 60.8063 105.149 61.2223 103.116 61.2223ZM103.153 56.5708C103.893 56.5708 104.519 56.3439 105.032 55.8901C105.544 55.4363 105.935 54.806 106.204 53.9993C106.481 53.1925 106.62 52.2597 106.62 51.2008C106.62 50.1251 106.481 49.1839 106.204 48.3772C105.935 47.5704 105.544 46.9401 105.032 46.4863C104.519 46.0325 103.893 45.8056 103.153 45.8056C102.389 45.8056 101.742 46.0325 101.212 46.4863C100.691 46.9401 100.292 47.5704 100.015 48.3772C99.7457 49.1839 99.6112 50.1251 99.6112 51.2008C99.6112 52.2597 99.7457 53.1925 100.015 53.9993C100.292 54.806 100.691 55.4363 101.212 55.8901C101.742 56.3439 102.389 56.5708 103.153 56.5708ZM128.547 52.4992V41.4945H134.699V60.8567H128.825V57.2515H128.623C128.194 58.4364 127.463 59.3776 126.43 60.0751C125.404 60.7642 124.165 61.1088 122.711 61.1088C121.392 61.1088 120.232 60.8063 119.232 60.2012C118.232 59.5961 117.454 58.7516 116.9 57.6675C116.345 56.575 116.064 55.2976 116.055 53.8354V41.4945H122.219V52.6252C122.228 53.6757 122.505 54.5035 123.051 55.1085C123.598 55.7136 124.341 56.0161 125.282 56.0161C125.896 56.0161 126.446 55.8817 126.934 55.6128C127.43 55.3354 127.82 54.9363 128.106 54.4152C128.4 53.8858 128.547 53.2471 128.547 52.4992ZM149.551 41.4945V46.0325H137.337V41.4945H149.551ZM139.895 36.8557H146.06V54.7682C146.06 55.1464 146.118 55.4531 146.236 55.6884C146.362 55.9153 146.543 56.0792 146.778 56.18C147.013 56.2725 147.295 56.3187 147.623 56.3187C147.858 56.3187 148.106 56.2977 148.366 56.2557C148.635 56.2052 148.837 56.1632 148.972 56.1296L149.904 60.5794C149.61 60.6634 149.194 60.7685 148.656 60.8945C148.127 61.0206 147.492 61.1004 146.753 61.134C145.307 61.2012 144.068 61.0332 143.034 60.6298C142.009 60.218 141.223 59.5793 140.677 58.7137C140.139 57.8482 139.879 56.7599 139.895 55.4489V36.8557ZM159.277 49.8142V60.8567H153.112V35.0405H159.075V45.0493H159.289C159.726 43.856 160.44 42.9231 161.432 42.2508C162.432 41.5785 163.655 41.2424 165.1 41.2424C166.462 41.2424 167.647 41.5449 168.655 42.15C169.664 42.7467 170.445 43.5912 171 44.6837C171.563 45.7762 171.84 47.0536 171.832 48.5158V60.8567H165.668V49.726C165.676 48.6503 165.407 47.8099 164.861 47.2048C164.315 46.5998 163.546 46.2972 162.554 46.2972C161.907 46.2972 161.335 46.4401 160.84 46.7258C160.352 47.0032 159.97 47.4023 159.693 47.9234C159.424 48.4444 159.285 49.0747 159.277 49.8142ZM179.297 60.8567L174.255 41.4945H180.445L183.054 53.8984H183.218L186.016 41.4945H192.054L194.928 53.8102H195.092L197.626 41.4945H203.815L198.76 60.8567H192.168L189.142 49.5747H188.928L185.903 60.8567H179.297ZM214.924 61.2223C212.899 61.2223 211.151 60.8231 209.68 60.0247C208.218 59.218 207.092 58.0709 206.302 56.5834C205.52 55.0875 205.129 53.3101 205.129 51.2512C205.129 49.2511 205.524 47.5032 206.314 46.0073C207.104 44.503 208.218 43.3349 209.655 42.503C211.092 41.6626 212.785 41.2424 214.735 41.2424C216.113 41.2424 217.374 41.4567 218.517 41.8853C219.659 42.3139 220.647 42.9484 221.479 43.7887C222.311 44.6291 222.958 45.667 223.42 46.9023C223.882 48.1293 224.113 49.5369 224.113 51.1252V52.6631H207.285V49.0831H218.378C218.369 48.4276 218.214 47.8435 217.911 47.3309C217.609 46.8183 217.193 46.4191 216.663 46.1334C216.142 45.8392 215.542 45.6922 214.861 45.6922C214.172 45.6922 213.554 45.8476 213.008 46.1586C212.462 46.4611 212.029 46.8771 211.71 47.4065C211.39 47.9276 211.222 48.52 211.205 49.1839V52.8269C211.205 53.6169 211.361 54.3102 211.672 54.9069C211.983 55.4951 212.424 55.9531 212.995 56.2809C213.567 56.6086 214.247 56.7725 215.037 56.7725C215.584 56.7725 216.079 56.6968 216.525 56.5456C216.97 56.3943 217.353 56.1716 217.672 55.8775C217.991 55.5834 218.231 55.222 218.39 54.7934L224.05 54.9573C223.815 56.2262 223.298 57.3313 222.5 58.2725C221.71 59.2054 220.672 59.9323 219.386 60.4533C218.101 60.9659 216.613 61.2223 214.924 61.2223ZM244.166 47.4065L238.506 47.5578C238.447 47.1544 238.287 46.7973 238.027 46.4863C237.766 46.167 237.426 45.9191 237.006 45.7426C236.594 45.5577 236.115 45.4653 235.569 45.4653C234.854 45.4653 234.245 45.6081 233.741 45.8939C233.245 46.1796 233.001 46.5662 233.01 47.0536C233.001 47.4317 233.153 47.7595 233.464 48.0368C233.783 48.3141 234.35 48.5368 235.165 48.7049L238.897 49.4108C240.829 49.7806 242.266 50.3941 243.208 51.2512C244.157 52.1084 244.636 53.2429 244.645 54.6547C244.636 55.9825 244.241 57.138 243.46 58.1213C242.687 59.1045 241.628 59.8693 240.283 60.4155C238.939 60.9533 237.401 61.2223 235.67 61.2223C232.905 61.2223 230.724 60.655 229.127 59.5205C227.539 58.3776 226.631 56.8481 226.404 54.9321L232.493 54.7808C232.627 55.4867 232.976 56.0245 233.539 56.3943C234.102 56.7641 234.821 56.949 235.695 56.949C236.485 56.949 237.128 56.8019 237.623 56.5078C238.119 56.2136 238.371 55.8229 238.38 55.3354C238.371 54.8984 238.178 54.5497 237.8 54.2892C237.422 54.0203 236.829 53.8102 236.023 53.6589L232.644 53.016C230.703 52.6631 229.258 52.0118 228.308 51.0621C227.358 50.1041 226.888 48.8856 226.896 47.4065C226.888 46.1124 227.232 45.0073 227.93 44.0913C228.627 43.1669 229.619 42.4609 230.905 41.9735C232.19 41.4861 233.707 41.2424 235.455 41.2424C238.077 41.2424 240.145 41.7928 241.657 42.8937C243.17 43.9862 244.006 45.4905 244.166 47.4065ZM258.609 41.4945V46.0325H246.394V41.4945H258.609ZM248.953 36.8557H255.117V54.7682C255.117 55.1464 255.176 55.4531 255.293 55.6884C255.419 55.9153 255.6 56.0792 255.835 56.18C256.071 56.2725 256.352 56.3187 256.68 56.3187C256.915 56.3187 257.163 56.2977 257.424 56.2557C257.693 56.2052 257.894 56.1632 258.029 56.1296L258.962 60.5794C258.667 60.6634 258.251 60.7685 257.714 60.8945C257.184 61.0206 256.55 61.1004 255.81 61.134C254.365 61.2012 253.125 61.0332 252.091 60.6298C251.066 60.218 250.28 59.5793 249.734 58.7137C249.196 57.8482 248.936 56.7599 248.953 55.4489V36.8557ZM280.876 60.8567H272.91V35.0405H281.229C283.734 35.0405 285.877 35.5573 287.658 36.5909C289.44 37.6162 290.805 39.091 291.755 41.0155C292.705 42.9315 293.179 45.2258 293.179 47.8981C293.179 50.5873 292.7 52.9026 291.742 54.8438C290.784 56.7767 289.389 58.2641 287.557 59.3062C285.725 60.3399 283.498 60.8567 280.876 60.8567ZM276.036 58.0835H280.675C282.809 58.0835 284.578 57.6717 285.982 56.8481C287.385 56.0245 288.431 54.8522 289.12 53.3312C289.81 51.8101 290.154 49.9991 290.154 47.8981C290.154 45.814 289.814 44.0198 289.133 42.5156C288.452 41.0029 287.435 39.8432 286.082 39.0364C284.729 38.2213 283.045 37.8137 281.028 37.8137H276.036V58.0835ZM298.02 60.8567V41.4945H300.995V60.8567H298.02ZM299.533 38.2675C298.953 38.2675 298.453 38.07 298.033 37.675C297.621 37.28 297.415 36.8052 297.415 36.2506C297.415 35.6959 297.621 35.2211 298.033 34.8262C298.453 34.4312 298.953 34.2337 299.533 34.2337C300.112 34.2337 300.608 34.4312 301.02 34.8262C301.44 35.2211 301.65 35.6959 301.65 36.2506C301.65 36.8052 301.44 37.28 301.02 37.675C300.608 38.07 300.112 38.2675 299.533 38.2675ZM314.259 68.5209C312.822 68.5209 311.587 68.336 310.553 67.9662C309.519 67.6049 308.658 67.1259 307.969 66.5292C307.288 65.9409 306.746 65.3107 306.343 64.6384L308.713 62.9744C308.982 63.3274 309.322 63.7308 309.734 64.1846C310.145 64.6468 310.709 65.0459 311.423 65.3821C312.146 65.7266 313.091 65.8989 314.259 65.8989C315.822 65.8989 317.112 65.5208 318.129 64.7644C319.146 64.0081 319.654 62.8232 319.654 61.2096V57.2767H319.402C319.184 57.6297 318.873 58.0667 318.469 58.5877C318.074 59.1003 317.503 59.5583 316.755 59.9617C316.015 60.3567 315.015 60.5542 313.755 60.5542C312.192 60.5542 310.788 60.1844 309.545 59.4449C308.309 58.7053 307.33 57.6297 306.608 56.2178C305.893 54.806 305.536 53.0916 305.536 51.0748C305.536 49.0915 305.885 47.3645 306.582 45.8939C307.28 44.4148 308.25 43.2719 309.494 42.4651C310.738 41.65 312.175 41.2424 313.805 41.2424C315.066 41.2424 316.066 41.4525 316.805 41.8727C317.553 42.2845 318.125 42.7551 318.52 43.2845C318.923 43.8055 319.234 44.2341 319.453 44.5703H319.755V41.4945H322.629V61.4113C322.629 63.0753 322.251 64.4283 321.495 65.4703C320.747 66.5208 319.738 67.2897 318.469 67.7772C317.209 68.273 315.805 68.5209 314.259 68.5209ZM314.158 57.8818C315.352 57.8818 316.36 57.6087 317.184 57.0624C318.007 56.5162 318.633 55.7304 319.062 54.7052C319.49 53.6799 319.705 52.453 319.705 51.0243C319.705 49.6293 319.495 48.3982 319.074 47.3309C318.654 46.2636 318.032 45.4275 317.209 44.8224C316.385 44.2173 315.368 43.9148 314.158 43.9148C312.898 43.9148 311.847 44.2341 311.007 44.8728C310.175 45.5115 309.549 46.3687 309.129 47.4443C308.717 48.52 308.511 49.7134 308.511 51.0243C308.511 52.3689 308.721 53.5581 309.141 54.5917C309.57 55.617 310.2 56.4237 311.032 57.012C311.872 57.5918 312.914 57.8818 314.158 57.8818ZM328.075 60.8567V41.4945H331.05V60.8567H328.075ZM329.587 38.2675C329.008 38.2675 328.508 38.07 328.087 37.675C327.676 37.28 327.47 36.8052 327.47 36.2506C327.47 35.6959 327.676 35.2211 328.087 34.8262C328.508 34.4312 329.008 34.2337 329.587 34.2337C330.167 34.2337 330.663 34.4312 331.075 34.8262C331.495 35.2211 331.705 35.6959 331.705 36.2506C331.705 36.8052 331.495 37.28 331.075 37.675C330.663 38.07 330.167 38.2675 329.587 38.2675ZM344.919 41.4945V44.0156H334.885V41.4945H344.919ZM337.809 36.8557H340.784V55.3102C340.784 56.1506 340.906 56.7809 341.15 57.2011C341.402 57.6129 341.721 57.8902 342.108 58.033C342.503 58.1675 342.919 58.2347 343.356 58.2347C343.684 58.2347 343.953 58.2179 344.163 58.1843C344.373 58.1423 344.541 58.1087 344.667 58.0835L345.272 60.7558C345.07 60.8315 344.789 60.9071 344.427 60.9827C344.066 61.0668 343.608 61.1088 343.053 61.1088C342.213 61.1088 341.389 60.9281 340.583 60.5668C339.784 60.2054 339.12 59.655 338.591 58.9154C338.07 58.1759 337.809 57.2431 337.809 56.117V36.8557ZM355.092 61.3105C353.865 61.3105 352.751 61.0794 351.751 60.6172C350.751 60.1466 349.957 59.4701 349.369 58.5877C348.781 57.6969 348.486 56.6212 348.486 55.3607C348.486 54.2514 348.705 53.3522 349.142 52.6631C349.579 51.9656 350.163 51.4193 350.894 51.0243C351.625 50.6294 352.432 50.3352 353.314 50.1419C354.205 49.9403 355.1 49.7806 355.999 49.6629C357.176 49.5117 358.13 49.3982 358.861 49.3226C359.6 49.2385 360.138 49.0999 360.474 48.9066C360.819 48.7133 360.991 48.3772 360.991 47.8981V47.7973C360.991 46.5536 360.651 45.5871 359.97 44.898C359.298 44.2089 358.277 43.8644 356.907 43.8644C355.487 43.8644 354.373 44.1753 353.566 44.7972C352.76 45.419 352.192 46.0829 351.865 46.7889L349.041 45.7804C349.545 44.6039 350.218 43.6879 351.058 43.0324C351.907 42.3685 352.831 41.9063 353.831 41.6458C354.84 41.3769 355.831 41.2424 356.806 41.2424C357.428 41.2424 358.142 41.318 358.949 41.4693C359.764 41.6122 360.55 41.9105 361.306 42.3643C362.071 42.8181 362.706 43.503 363.21 44.419C363.714 45.335 363.966 46.562 363.966 48.0998V60.8567H360.991V58.2347H360.84C360.638 58.6549 360.302 59.1045 359.831 59.5835C359.361 60.0625 358.735 60.4701 357.953 60.8063C357.172 61.1424 356.218 61.3105 355.092 61.3105ZM355.546 58.6381C356.722 58.6381 357.714 58.407 358.52 57.9448C359.336 57.4826 359.949 56.8859 360.361 56.1548C360.781 55.4237 360.991 54.6547 360.991 53.848V51.1252C360.865 51.2764 360.588 51.4151 360.159 51.5412C359.739 51.6588 359.252 51.7639 358.697 51.8563C358.151 51.9403 357.617 52.016 357.096 52.0832C356.583 52.142 356.167 52.1925 355.848 52.2345C355.075 52.3353 354.352 52.4992 353.68 52.7261C353.016 52.9446 352.478 53.2765 352.066 53.7219C351.663 54.1589 351.461 54.7556 351.461 55.5119C351.461 56.5456 351.844 57.3271 352.608 57.8566C353.382 58.3776 354.361 58.6381 355.546 58.6381ZM372.371 35.0405V60.8567H369.396V35.0405H372.371Z" fill="#2B2C78"/>
</svg>
